<?xml version="1.0" encoding="UTF-8"?>
<!DOCTYPE svg PUBLIC "-//W3C//DTD SVG 1.1//EN" "http://www.w3.org/Graphics/SVG/1.1/DTD/svg11.dtd">
<svg xmlns="http://www.w3.org/2000/svg" version="1.1" width="1500px" height="181px" style="shape-rendering:geometricPrecision; text-rendering:geometricPrecision; image-rendering:optimizeQuality; fill-rule:evenodd; clip-rule:evenodd" xmlns:xlink="http://www.w3.org/1999/xlink">
<g><path style="opacity:0.993" fill="#f98e53" d="M 4.5,-0.5 C 80.5,-0.5 156.5,-0.5 232.5,-0.5C 233.661,43.4291 233.827,87.4291 233,131.5C 232.5,132 232,132.5 231.5,133C 202.5,133.333 173.5,133.667 144.5,134C 152.266,146.56 163.6,153.56 178.5,155C 183.167,155.333 187.833,155.667 192.5,156C 193.333,156.833 194.167,157.667 195,158.5C 195.763,165.882 195.597,173.216 194.5,180.5C 144.167,180.5 93.8333,180.5 43.5,180.5C 43.2172,179.711 42.7172,179.044 42,178.5C 41.3333,171.833 41.3333,165.167 42,158.5C 42.5,158 43,157.5 43.5,157C 53.717,156.29 63.717,154.29 73.5,151C 81.5866,147.407 87.9199,141.907 92.5,134.5C 63.5057,133.667 34.5057,133.167 5.5,133C 5,132.5 4.5,132 4,131.5C 3.17255,87.4291 3.33922,43.4291 4.5,-0.5 Z M 93.5,28.5 C 94.552,28.3505 95.552,28.5172 96.5,29C 115.336,40.2526 134.336,51.2526 153.5,62C 156.309,63.588 156.975,65.7546 155.5,68.5C 135.401,80.6043 115.068,92.2709 94.5,103.5C 92.9707,103.471 91.804,102.804 91,101.5C 90.3333,78.1667 90.3333,54.8333 91,31.5C 91.6979,30.3094 92.5313,29.3094 93.5,28.5 Z"/></g>
<g><path style="opacity:0.956" fill="#093c64" d="M 280.5,-0.5 C 283.167,-0.5 285.833,-0.5 288.5,-0.5C 291.046,2.284 292.546,5.61734 293,9.5C 293.667,63.1667 293.667,116.833 293,170.5C 292.546,174.383 291.046,177.716 288.5,180.5C 285.833,180.5 283.167,180.5 280.5,180.5C 277.62,177.064 276.12,173.064 276,168.5C 275.333,116.167 275.333,63.8333 276,11.5C 276.12,6.93589 277.62,2.93589 280.5,-0.5 Z"/></g>
<g><path style="opacity:0.981" fill="#093c64" d="M 697.5,-0.5 C 707.167,-0.5 716.833,-0.5 726.5,-0.5C 726.646,24.2475 726.48,48.9142 726,73.5C 740.464,57.4013 757.964,53.2346 778.5,61C 788.031,67.2227 793.531,76.056 795,87.5C 795.5,117.498 795.667,147.498 795.5,177.5C 785.5,177.5 775.5,177.5 765.5,177.5C 765.938,149.8 765.438,122.134 764,94.5C 757.135,80.6585 747.302,78.1585 734.5,87C 731.433,90.2975 729.267,94.1308 728,98.5C 727.5,124.831 727.333,151.165 727.5,177.5C 717.5,177.5 707.5,177.5 697.5,177.5C 697.5,118.167 697.5,58.8333 697.5,-0.5 Z"/></g>
<g><path style="opacity:0.979" fill="#093c64" d="M 421.5,180.5 C 410.833,180.5 400.167,180.5 389.5,180.5C 363.662,173.83 347.162,157.497 340,131.5C 334.068,108.147 334.068,84.8134 340,61.5C 351.506,29.6655 374.172,12.6655 408,10.5C 419.447,10.6217 430.614,12.4551 441.5,16C 446.239,18.2433 450.572,21.0767 454.5,24.5C 455.583,25.365 455.749,26.365 455,27.5C 450.922,35.9906 446.588,44.3239 442,52.5C 433.54,43.3977 423.04,39.0644 410.5,39.5C 391.422,40.1325 378.588,49.4658 372,67.5C 365.416,89.8272 366.416,111.827 375,133.5C 387.696,155.246 405.196,160.079 427.5,148C 435.386,138.632 438.386,127.799 436.5,115.5C 425.5,115.5 414.5,115.5 403.5,115.5C 403.5,106.833 403.5,98.1667 403.5,89.5C 424.167,89.5 444.833,89.5 465.5,89.5C 467.937,109.494 466.437,129.161 461,148.5C 453.6,166.411 440.433,177.077 421.5,180.5 Z"/></g>
<g><path style="opacity:0.978" fill="#093c64" d="M 1117.5,180.5 C 1106.83,180.5 1096.17,180.5 1085.5,180.5C 1059.48,172.976 1042.98,155.976 1036,129.5C 1028.99,103.358 1030.32,77.6917 1040,52.5C 1059.02,17.58 1088.18,4.41335 1127.5,13C 1137.11,14.9726 1145.45,19.3059 1152.5,26C 1147.87,34.7553 1143.37,43.5886 1139,52.5C 1130.18,43.3491 1119.35,39.0158 1106.5,39.5C 1087.24,40.5556 1074.4,50.2222 1068,68.5C 1062.9,86.9919 1062.9,105.659 1068,124.5C 1077.31,152.405 1095.48,160.571 1122.5,149C 1131.44,139.693 1135.1,128.526 1133.5,115.5C 1122.17,115.5 1110.83,115.5 1099.5,115.5C 1099.5,106.833 1099.5,98.1667 1099.5,89.5C 1120.17,89.5 1140.83,89.5 1161.5,89.5C 1164.5,109.826 1163,129.826 1157,149.5C 1149.23,166.776 1136.06,177.11 1117.5,180.5 Z"/></g>
<g><path style="opacity:0.972" fill="#093c64" d="M 652.5,180.5 C 646.833,180.5 641.167,180.5 635.5,180.5C 623.333,178.169 615.833,170.836 613,158.5C 611.55,134.21 611.05,109.877 611.5,85.5C 606.167,85.5 600.833,85.5 595.5,85.5C 595.5,77.1667 595.5,68.8333 595.5,60.5C 601.167,60.5 606.833,60.5 612.5,60.5C 612.453,52.1091 613.12,43.7758 614.5,35.5C 622.916,32.0277 631.25,28.361 639.5,24.5C 640.499,36.4815 640.832,48.4815 640.5,60.5C 649.833,60.5 659.167,60.5 668.5,60.5C 668.5,68.8333 668.5,77.1667 668.5,85.5C 659.167,85.5 649.833,85.5 640.5,85.5C 640.034,106.9 640.534,128.233 642,149.5C 646.073,155.63 651.573,157.13 658.5,154C 662.577,152.213 666.41,150.046 670,147.5C 672.386,155.206 674.553,163.039 676.5,171C 674.458,173.58 671.791,175.247 668.5,176C 663.094,177.705 657.761,179.205 652.5,180.5 Z"/></g>
<g><path style="opacity:0.972" fill="#f98e54" d="M 98.5,40.5 C 113.77,48.4699 128.77,56.9699 143.5,66C 128.997,74.7525 114.33,83.2525 99.5,91.5C 98.5005,74.5131 98.1672,57.5131 98.5,40.5 Z"/></g>
<g><path style="opacity:0.967" fill="#093c64" d="M 521.5,180.5 C 516.833,180.5 512.167,180.5 507.5,180.5C 490.903,175.531 482.57,164.198 482.5,146.5C 483.306,130.854 490.973,120.02 505.5,114C 518.727,109.087 532.393,106.92 546.5,107.5C 549.05,91.5425 542.383,83.2092 526.5,82.5C 515.191,82.8193 505.191,86.4859 496.5,93.5C 492.497,86.3252 489.164,78.8252 486.5,71C 496.602,63.7392 507.935,59.4059 520.5,58C 532.39,56.6898 544.057,57.6898 555.5,61C 565.27,65.0264 571.437,72.193 574,82.5C 574.995,87.4535 575.662,92.4535 576,97.5C 576.5,124.165 576.667,150.831 576.5,177.5C 567.808,177.831 559.141,177.498 550.5,176.5C 549.668,171.85 548.835,167.183 548,162.5C 541.398,171.959 532.565,177.959 521.5,180.5 Z M 531.5,126.5 C 536.5,126.5 541.5,126.5 546.5,126.5C 549.539,143.304 542.705,153.637 526,157.5C 514.169,155.857 509.835,149.19 513,137.5C 514.122,135.376 515.622,133.543 517.5,132C 522.046,129.545 526.712,127.712 531.5,126.5 Z"/></g>
<g><path style="opacity:0.974" fill="#093c64" d="M 885.5,180.5 C 880.833,180.5 876.167,180.5 871.5,180.5C 846.251,178.094 830.751,164.428 825,139.5C 820.756,119.694 823.09,100.694 832,82.5C 846.968,60.7255 867.468,52.8922 893.5,59C 909.15,63.3198 918.65,73.4865 922,89.5C 924.2,102.399 925.034,115.399 924.5,128.5C 901.167,128.5 877.833,128.5 854.5,128.5C 856.957,150.776 869.29,159.943 891.5,156C 898.596,154.253 904.93,151.086 910.5,146.5C 914.764,153.814 917.931,161.48 920,169.5C 909.242,175.921 897.742,179.588 885.5,180.5 Z M 873.5,80.5 C 884.76,79.2561 891.26,84.2561 893,95.5C 893.665,100.156 894.165,104.823 894.5,109.5C 881.167,109.5 867.833,109.5 854.5,109.5C 854.75,99.5031 858.416,91.0031 865.5,84C 868.158,82.522 870.825,81.3554 873.5,80.5 Z"/></g>
<g><path style="opacity:0.969" fill="#093c64" d="M 1007.5,58.5 C 1010.85,58.335 1014.18,58.5017 1017.5,59C 1020.12,59.1515 1022.45,59.9848 1024.5,61.5C 1022.15,71.8805 1019.65,82.2139 1017,92.5C 1004.55,85.8566 993.549,87.8566 984,98.5C 983,100.5 982,102.5 981,104.5C 980.5,128.831 980.333,153.164 980.5,177.5C 970.5,177.5 960.5,177.5 950.5,177.5C 950.5,138.5 950.5,99.5 950.5,60.5C 959.5,60.5 968.5,60.5 977.5,60.5C 977.909,66.5015 978.409,72.5015 979,78.5C 985.108,66.8765 994.608,60.2098 1007.5,58.5 Z"/></g>
<g><path style="opacity:0.967" fill="#093c64" d="M 1369.5,58.5 C 1374.57,58.3399 1379.57,58.8399 1384.5,60C 1385.43,60.3879 1386.09,61.0546 1386.5,62C 1384.37,72.3264 1381.87,82.493 1379,92.5C 1367.18,86.0948 1356.52,87.7615 1347,97.5C 1345.41,99.6705 1344.08,102.004 1343,104.5C 1342.5,128.831 1342.33,153.164 1342.5,177.5C 1332.5,177.5 1322.5,177.5 1312.5,177.5C 1312.5,138.5 1312.5,99.5 1312.5,60.5C 1321.5,60.5 1330.5,60.5 1339.5,60.5C 1340.14,66.477 1340.64,72.477 1341,78.5C 1347.11,66.8765 1356.61,60.2098 1369.5,58.5 Z"/></g>
<g><path style="opacity:0.972" fill="#093d64" d="M 1186.5,60.5 C 1196.5,60.5 1206.5,60.5 1216.5,60.5C 1216.33,87.8354 1216.5,115.169 1217,142.5C 1219.06,153.551 1225.56,157.718 1236.5,155C 1243.07,152.762 1247.24,148.262 1249,141.5C 1249.5,114.502 1249.67,87.5021 1249.5,60.5C 1259.83,60.5 1270.17,60.5 1280.5,60.5C 1280.5,99.5 1280.5,138.5 1280.5,177.5C 1271.17,177.5 1261.83,177.5 1252.5,177.5C 1252.67,172.821 1252.5,168.155 1252,163.5C 1241.81,177.859 1227.97,183.025 1210.5,179C 1196.14,174.472 1188.3,164.639 1187,149.5C 1186.5,119.835 1186.33,90.1685 1186.5,60.5 Z"/></g>
<g><path style="opacity:0.977" fill="#083c64" d="M 1401.5,60.5 C 1411.5,60.5 1421.5,60.5 1431.5,60.5C 1431.33,86.5021 1431.5,112.502 1432,138.5C 1433.66,154.248 1441.83,159.082 1456.5,153C 1461.24,149.687 1464.07,145.187 1465,139.5C 1465.5,113.169 1465.67,86.8354 1465.5,60.5C 1475.5,60.5 1485.5,60.5 1495.5,60.5C 1495.5,99.5 1495.5,138.5 1495.5,177.5C 1486.5,177.5 1477.5,177.5 1468.5,177.5C 1468.69,173.085 1468.19,168.751 1467,164.5C 1455.47,179.102 1440.63,183.602 1422.5,178C 1413.18,173.668 1407.01,166.501 1404,156.5C 1403.15,152.531 1402.48,148.531 1402,144.5C 1401.5,116.502 1401.33,88.502 1401.5,60.5 Z"/></g>
</svg>
